<svg width="25" height="24" viewBox="0 0 25 24" fill="none" xmlns="http://www.w3.org/2000/svg">
<path fill-rule="evenodd" clip-rule="evenodd" d="M3.83808 5.17157C2.6665 6.34315 2.6665 8.22876 2.6665 12C2.6665 15.7712 2.6665 17.6569 3.83808 18.8284C5.00965 20 6.89527 20 10.6665 20H14.6665C18.4377 20 20.3234 20 21.4949 18.8284C22.6665 17.6569 22.6665 15.7712 22.6665 12C22.6665 8.22876 22.6665 6.34315 21.4949 5.17157C20.3234 4 18.4377 4 14.6665 4H10.6665C6.89527 4 5.00965 4 3.83808 5.17157ZM19.2427 7.51986C19.5078 7.83807 19.4648 8.31099 19.1466 8.57617L16.9502 10.4066C16.0638 11.1452 15.3454 11.7439 14.7113 12.1517C14.0508 12.5765 13.4076 12.8449 12.6665 12.8449C11.9254 12.8449 11.2822 12.5765 10.6217 12.1517C9.98762 11.7439 9.26922 11.1452 8.38286 10.4066L6.18637 8.57617C5.86816 8.31099 5.82516 7.83807 6.09034 7.51986C6.35551 7.20165 6.82843 7.15866 7.14664 7.42383L9.30554 9.22291C10.2385 10.0004 10.8862 10.5384 11.4331 10.8901C11.9624 11.2306 12.3214 11.3449 12.6665 11.3449C13.0116 11.3449 13.3706 11.2306 13.8999 10.8901C14.4468 10.5384 15.0945 10.0004 16.0275 9.22291L18.1864 7.42383C18.5046 7.15866 18.9775 7.20165 19.2427 7.51986Z" fill="#B8B8B8"/>
</svg>
