<svg width="41" height="40" viewBox="0 0 41 40" fill="none" xmlns="http://www.w3.org/2000/svg">
<path d="M40.3335 20C40.3335 31.0457 31.3792 40 20.3335 40C9.2878 40 0.333496 31.0457 0.333496 20C0.333496 8.9543 9.2878 0 20.3335 0C31.3792 0 40.3335 8.9543 40.3335 20Z" fill="#4A73FF"/>
<path fill-rule="evenodd" clip-rule="evenodd" d="M20.3335 10.5C21.1619 10.5 21.8335 11.1716 21.8335 12V19.3787L26.3942 23.9393C26.9799 24.5251 26.9799 25.4749 26.3942 26.0607C25.8084 26.6464 24.8586 26.6464 24.2728 26.0607L19.2728 21.0607C18.9915 20.7794 18.8335 20.3978 18.8335 20V12C18.8335 11.1716 19.5051 10.5 20.3335 10.5Z" fill="white"/>
</svg>
