<svg width="49" height="48" viewBox="0 0 49 48" fill="none" xmlns="http://www.w3.org/2000/svg">
<path opacity="0.5" fill-rule="evenodd" clip-rule="evenodd" d="M44.6665 24C44.6665 35.0457 35.7122 44 24.6665 44C13.6208 44 4.6665 35.0457 4.6665 24C4.6665 12.9543 13.6208 4 24.6665 4C35.7122 4 44.6665 12.9543 44.6665 24Z" fill="#4CAF50"/>
<path fill-rule="evenodd" clip-rule="evenodd" d="M24.6665 10.5C25.4949 10.5 26.1665 11.1716 26.1665 12V12.6335C29.4274 13.2173 32.1665 15.6672 32.1665 19C32.1665 19.8284 31.4949 20.5 30.6665 20.5C29.8381 20.5 29.1665 19.8284 29.1665 19C29.1665 17.6431 28.0383 16.2068 26.1665 15.695V22.6335C29.4274 23.2173 32.1665 25.6672 32.1665 29C32.1665 32.3328 29.4274 34.7827 26.1665 35.3665V36C26.1665 36.8284 25.4949 37.5 24.6665 37.5C23.8381 37.5 23.1665 36.8284 23.1665 36V35.3665C19.9056 34.7827 17.1665 32.3328 17.1665 29C17.1665 28.1716 17.8381 27.5 18.6665 27.5C19.4949 27.5 20.1665 28.1716 20.1665 29C20.1665 30.3569 21.2947 31.7932 23.1665 32.305V25.3665C19.9056 24.7827 17.1665 22.3328 17.1665 19C17.1665 15.6672 19.9056 13.2173 23.1665 12.6335V12C23.1665 11.1716 23.8381 10.5 24.6665 10.5ZM23.1665 15.695C21.2947 16.2068 20.1665 17.6431 20.1665 19C20.1665 20.3569 21.2947 21.7932 23.1665 22.305V15.695ZM29.1665 29C29.1665 27.6431 28.0383 26.2068 26.1665 25.695V32.305C28.0383 31.7932 29.1665 30.3569 29.1665 29Z" fill="#4CAF50"/>
</svg>
