<svg width="48" height="48" viewBox="0 0 48 48" fill="none" xmlns="http://www.w3.org/2000/svg">
<path fill-rule="evenodd" clip-rule="evenodd" d="M4 25V23C4 16.425 4 13.1376 5.81592 10.9249C6.14835 10.5198 6.51978 10.1484 6.92485 9.81592C9.13755 8 12.425 8 19 8C25.575 8 28.8624 8 31.0751 9.81592C31.4802 10.1484 31.8517 10.5198 32.1841 10.9249C33.5872 12.6346 33.9062 14.9861 33.9787 19L35.3167 18.3416C39.2085 16.3958 41.1544 15.4228 42.5772 16.3021C44 17.1815 44 19.3571 44 23.7082V24.2918C44 28.6429 44 30.8185 42.5772 31.6979C41.1544 32.5772 39.2085 31.6042 35.3167 29.6584L33.9787 29C33.9062 33.014 33.5872 35.3654 32.1841 37.0751C31.8517 37.4802 31.4802 37.8517 31.0751 38.1841C28.8624 40 25.575 40 19 40C12.425 40 9.13755 40 6.92485 38.1841C6.51978 37.8517 6.14835 37.4802 5.81592 37.0751C4 34.8624 4 31.575 4 25ZM27.1213 19.1213C28.2929 17.9497 28.2929 16.0503 27.1213 14.8787C25.9497 13.7071 24.0503 13.7071 22.8787 14.8787C21.7071 16.0503 21.7071 17.9497 22.8787 19.1213C24.0503 20.2929 25.9497 20.2929 27.1213 19.1213Z" fill="#FF6363"/>
</svg>
