<svg width="25" height="24" viewBox="0 0 25 24" fill="none" xmlns="http://www.w3.org/2000/svg">
<path fill-rule="evenodd" clip-rule="evenodd" d="M14.5 4.65181V4.45181C14.5 3.82181 15.13 3.37181 15.71 3.60181C19.1 4.89181 21.5 8.16181 21.5 12.0018C21.5 15.8418 19.1 19.1118 15.71 20.4018C15.13 20.6218 14.5 20.1818 14.5 19.5518V19.3518C14.5 18.9718 14.74 18.6418 15.1 18.5018C17.68 17.4718 19.5 14.9418 19.5 12.0018C19.5 9.06181 17.68 6.53181 15.1 5.50181C14.75 5.36181 14.5 5.03181 14.5 4.65181ZM3.5 10.0018V14.0018C3.5 14.5518 3.95 15.0018 4.5 15.0018H7.5L10.79 18.2918C11.42 18.9218 12.5 18.4718 12.5 17.5818V6.41181C12.5 5.52181 11.42 5.07181 10.79 5.70181L7.5 9.00181H4.5C3.95 9.00181 3.5 9.45181 3.5 10.0018ZM17 12.0018C17 10.2318 15.98 8.71181 14.5 7.97181V16.0218C15.98 15.2918 17 13.7718 17 12.0018Z" fill="#1B1B1B" fill-opacity="0.6"/>
</svg>
