<svg width="25" height="24" viewBox="0 0 25 24" fill="none" xmlns="http://www.w3.org/2000/svg">
<path fill-rule="evenodd" clip-rule="evenodd" d="M21.5 3.5H3.5C2.4 3.5 1.5 4.4 1.5 5.5V18.5C1.5 19.6 2.4 20.5 3.5 20.5H21.5C22.6 20.5 23.5 19.6 23.5 18.5V5.5C23.5 4.4 22.6 3.5 21.5 3.5ZM21.5 17.5C21.5 18.05 21.05 18.5 20.5 18.5H12.5V5.5H20.5C21.05 5.5 21.5 5.95 21.5 6.5V17.5ZM14.25 9H19.75C20.16 9 20.5 9.34 20.5 9.75C20.5 10.16 20.16 10.5 19.75 10.5H14.25C13.84 10.5 13.5 10.16 13.5 9.75C13.5 9.34 13.84 9 14.25 9ZM19.75 11.5H14.25C13.84 11.5 13.5 11.84 13.5 12.25C13.5 12.66 13.84 13 14.25 13H19.75C20.16 13 20.5 12.66 20.5 12.25C20.5 11.84 20.16 11.5 19.75 11.5ZM14.25 14H19.75C20.16 14 20.5 14.34 20.5 14.75C20.5 15.16 20.16 15.5 19.75 15.5H14.25C13.84 15.5 13.5 15.16 13.5 14.75C13.5 14.34 13.84 14 14.25 14Z" fill="#1B1B1B" fill-opacity="0.6"/>
</svg>
