<svg width="25" height="24" viewBox="0 0 25 24" fill="none" xmlns="http://www.w3.org/2000/svg">
<path fill-rule="evenodd" clip-rule="evenodd" d="M20.5 3H4.5C3.95 3 3.5 3.45 3.5 4V20C3.5 20.55 3.95 21 4.5 21H20.5C21.05 21 21.5 20.55 21.5 20V4C21.5 3.45 21.05 3 20.5 3ZM9.5 7H7.5V9H9.5V7ZM16.5 9H12.5C11.95 9 11.5 8.55 11.5 8C11.5 7.45 11.95 7 12.5 7H16.5C17.05 7 17.5 7.45 17.5 8C17.5 8.55 17.05 9 16.5 9ZM16.5 13H12.5C11.95 13 11.5 12.55 11.5 12C11.5 11.45 11.95 11 12.5 11H16.5C17.05 11 17.5 11.45 17.5 12C17.5 12.55 17.05 13 16.5 13ZM12.5 17H16.5C17.05 17 17.5 16.55 17.5 16C17.5 15.45 17.05 15 16.5 15H12.5C11.95 15 11.5 15.45 11.5 16C11.5 16.55 11.95 17 12.5 17ZM7.5 11H9.5V13H7.5V11ZM9.5 15H7.5V17H9.5V15ZM5.5 19H19.5V5H5.5V19Z" fill="#1B1B1B" fill-opacity="0.6"/>
</svg>
