<svg width="25" height="24" viewBox="0 0 25 24" fill="none" xmlns="http://www.w3.org/2000/svg">
<path d="M2.25 10.0004V14.0004C2.25 16.8288 2.25 18.243 3.12868 19.1217C3.34602 19.339 3.59612 19.5026 3.89228 19.6257C3.88556 19.5812 3.87922 19.5366 3.87321 19.492C3.74986 18.5745 3.74992 17.4288 3.75 16.099L3.75 8.0003L3.75 7.90155V7.90155C3.74992 6.57182 3.74986 5.4261 3.87321 4.50861C3.87921 4.46399 3.88555 4.41944 3.89226 4.375C3.59611 4.49812 3.34601 4.6617 3.12868 4.87903C2.25 5.75771 2.25 7.17192 2.25 10.0004Z" fill="#AF7C00"/>
<path d="M22.25 10.0004V14.0004C22.25 16.8288 22.25 18.243 21.3713 19.1217C21.154 19.339 20.9039 19.5026 20.6077 19.6257C20.6144 19.5812 20.6208 19.5366 20.6268 19.492C20.7501 18.5745 20.7501 17.4288 20.75 16.099V7.90156C20.7501 6.57183 20.7501 5.4261 20.6268 4.50861C20.6208 4.46399 20.6144 4.41944 20.6077 4.375C20.9039 4.49812 21.154 4.6617 21.3713 4.87903C22.25 5.75771 22.25 7.17192 22.25 10.0004Z" fill="#AF7C00"/>
<path fill-rule="evenodd" clip-rule="evenodd" d="M6.12868 2.87868C5.25 3.75736 5.25 5.17157 5.25 8V16C5.25 18.8284 5.25 20.2426 6.12868 21.1213C7.00736 22 8.42157 22 11.25 22H13.25C16.0784 22 17.4926 22 18.3713 21.1213C19.25 20.2426 19.25 18.8284 19.25 16V8C19.25 5.17157 19.25 3.75736 18.3713 2.87868C17.4926 2 16.0784 2 13.25 2H11.25C8.42157 2 7.00736 2 6.12868 2.87868ZM8.5 17C8.5 16.5858 8.83579 16.25 9.25 16.25H12.25C12.6642 16.25 13 16.5858 13 17C13 17.4142 12.6642 17.75 12.25 17.75H9.25C8.83579 17.75 8.5 17.4142 8.5 17ZM9.25 12.25C8.83579 12.25 8.5 12.5858 8.5 13C8.5 13.4142 8.83579 13.75 9.25 13.75H15.25C15.6642 13.75 16 13.4142 16 13C16 12.5858 15.6642 12.25 15.25 12.25H9.25ZM8.5 9C8.5 8.58579 8.83579 8.25 9.25 8.25H15.25C15.6642 8.25 16 8.58579 16 9C16 9.41421 15.6642 9.75 15.25 9.75H9.25C8.83579 9.75 8.5 9.41421 8.5 9Z" fill="#AF7C00"/>
</svg>
