<svg width="25" height="24" viewBox="0 0 25 24" fill="none" xmlns="http://www.w3.org/2000/svg">
<path fill-rule="evenodd" clip-rule="evenodd" d="M21.5 5.9H13.91L16.85 2.96C17.05 2.76 17.05 2.45 16.85 2.25C16.65 2.05 16.34 2.05 16.14 2.25L12.5 5.89L8.86 2.25C8.66 2.05 8.35 2.05 8.15 2.25C7.95 2.45 7.95 2.76 8.15 2.96L11.09 5.9H3.5C2.4 5.9 1.5 6.79 1.5 7.9V19.9C1.5 21 2.4 21.9 3.5 21.9H21.5C22.6 21.9 23.5 21 23.5 19.9V7.9C23.5 6.79 22.6 5.9 21.5 5.9ZM11 17.05L14.98 14.77C15.65 14.39 15.65 13.42 14.98 13.03L11 10.75C10.33 10.37 9.5 10.86 9.5 11.62V16.17C9.5 16.94 10.33 17.43 11 17.05ZM4.5 19.9H20.5C21.05 19.9 21.5 19.45 21.5 18.9V8.9C21.5 8.35 21.05 7.9 20.5 7.9H4.5C3.95 7.9 3.5 8.35 3.5 8.9V18.9C3.5 19.45 3.95 19.9 4.5 19.9Z" fill="#1B1B1B" fill-opacity="0.6"/>
</svg>
