<svg width="23" height="20" viewBox="0 0 23 20" fill="none" xmlns="http://www.w3.org/2000/svg">
<path fill-rule="evenodd" clip-rule="evenodd" d="M11.5004 3.02821C13.4071 0.796545 16.9387 -0.113455 19.7987 1.83654C21.3154 2.87654 22.2687 4.63154 22.3337 6.47321C22.4746 10.6765 18.7587 14.0457 13.0712 19.2024L12.9521 19.3107C12.1287 20.069 10.8612 20.069 10.0379 19.3215L9.92956 19.224L9.86413 19.1646C4.2135 14.0307 0.515976 10.6712 0.66706 6.48404C0.73206 4.63154 1.68539 2.87654 3.20206 1.83654C6.06206 -0.124288 9.59373 0.796545 11.5004 3.02821ZM11.5004 17.7182L11.6087 17.6099C16.7654 12.9407 20.1671 9.85321 20.1671 6.72238C20.1671 4.55571 18.5421 2.93071 16.3754 2.93071C14.7071 2.93071 13.0821 4.00321 12.5187 5.48738H10.4929C9.91873 4.00321 8.29373 2.93071 6.62539 2.93071C4.45873 2.93071 2.83373 4.55571 2.83373 6.72238C2.83373 9.85321 6.23539 12.9407 11.3921 17.6099L11.5004 17.7182Z" fill="#1B1B1B" fill-opacity="0.6"/>
</svg>
