<svg width="27" height="28" viewBox="0 0 27 28" fill="none" xmlns="http://www.w3.org/2000/svg">
<path d="M19.803 20.601C23.4486 16.9554 23.4486 11.0446 19.803 7.399C16.1573 3.75337 10.2466 3.75337 6.60099 7.399C2.95536 11.0446 2.95537 16.9554 6.60099 20.601C10.2466 24.2466 16.1573 24.2466 19.803 20.601Z" stroke="#1B3252" stroke-width="0.789184" stroke-miterlimit="10"/>
<path d="M13.192 12.5314C15.3642 12.5314 17.1251 10.7705 17.1251 8.59822C17.1251 6.42598 15.3642 4.66504 13.192 4.66504C11.0197 4.66504 9.25879 6.42598 9.25879 8.59822C9.25879 10.7705 11.0197 12.5314 13.192 12.5314Z" stroke="#1B3252" stroke-width="0.789184" stroke-miterlimit="10"/>
<path d="M18.6002 17.9286C18.6002 14.9474 16.1836 12.5308 13.2027 12.5308C10.2215 12.5308 7.80518 14.9474 7.80518 17.9286C7.80518 20.9095 10.2218 23.3261 13.2027 23.3261C16.1836 23.3264 18.6002 20.9098 18.6002 17.9286Z" stroke="#1B3252" stroke-width="0.789184" stroke-miterlimit="10"/>
<path d="M13.2021 8.11033C13.2021 7.50709 12.7131 7.01806 12.1099 7.01806C12.7131 7.01806 13.2021 6.52902 13.2021 5.92578C13.2021 6.52902 13.6912 7.01806 14.2944 7.01806C13.6912 7.01806 13.2021 7.50709 13.2021 8.11033Z" fill="#1B3252"/>
<path d="M13.2028 12.5586C13.2028 12.5586 15.8144 18.7015 10.2637 22.4677" stroke="#1B3252" stroke-width="0.789184" stroke-miterlimit="10"/>
<path d="M13.2022 12.5586C13.2022 12.5586 10.5307 18.6794 16.0817 22.4456" stroke="#1B3252" stroke-width="0.789184" stroke-miterlimit="10"/>
</svg>
