<?xml version="1.0" encoding="utf-8"?>
<!-- Generator: Adobe Illustrator 27.3.1, SVG Export Plug-In . SVG Version: 6.00 Build 0)  -->
<svg version="1.1" id="Layer_1" xmlns="http://www.w3.org/2000/svg" xmlns:xlink="http://www.w3.org/1999/xlink" x="0px" y="0px"
	 viewBox="0 0 2000 2000" style="enable-background:new 0 0 2000 2000;" xml:space="preserve">
<style type="text/css">
	.st0{fill:none;stroke:#1B3252;stroke-width:10;stroke-miterlimit:10;}
	.st1{fill:#1B3252;}
</style>
<g>
	<g>
		
			<ellipse transform="matrix(0.7071 -0.7071 0.7071 0.7071 -323.5395 946.4764)" class="st0" cx="980.73" cy="863.78" rx="304.09" ry="304.09"/>
		<circle class="st0" cx="980.39" cy="687.82" r="128.12"/>
		<path class="st0" d="M1156.55,991.76c0-97.11-78.72-175.83-175.82-175.83c-97.11,0-175.82,78.72-175.82,175.83
			c0,97.1,78.72,175.82,175.82,175.82C1077.83,1167.59,1156.55,1088.87,1156.55,991.76z"/>
		<path class="st1" d="M980.73,671.93L980.73,671.93c0-19.65-15.93-35.58-35.58-35.58v0c19.65,0,35.58-15.93,35.58-35.58h0
			c0,19.65,15.93,35.58,35.58,35.58v0C996.66,636.35,980.73,652.28,980.73,671.93z"/>
		<path class="st0" d="M980.73,816.84c0,0,85.07,200.1-95.74,322.78"/>
		<path class="st0" d="M980.73,816.84c0,0-87.02,199.38,93.8,322.06"/>
	</g>
	<g>
		<path class="st1" d="M571.05,1322.64h-7c-3.03-16.71-8.61-27.46-16.73-32.24c-8.13-4.78-16.27-6.94-24.43-6.47
			c-7.15,0.23-13.49,2.53-19.01,6.88c-5.91,4.74-8.87,10.65-8.87,17.73c0,4.74,1.67,9.14,5.02,13.18
			c4.9,5.83,16.36,13.61,34.4,23.32c12.51,6.69,20.52,11.24,24.02,13.64c8.94,6.07,15.2,12.6,18.77,19.59
			c2.88,5.75,4.31,11.78,4.31,18.08c0,13.14-5.09,23.91-15.28,32.3c-9.56,7.78-21.07,11.66-34.52,11.66
			c-4.51,0-8.67-0.27-12.48-0.81c-4.98-0.54-10.32-2.16-16.04-4.84c-5.71-2.68-11.37-8.05-16.97-16.09
			c-5.6-8.05-8.4-19.07-8.4-33.06h7c0.08,10.57,1.52,18.47,4.31,23.67c3.66,6.92,9.33,12.4,17.03,16.44c7,3.73,14.69,5.6,23.09,5.6
			c8.39,0,15.58-2.18,21.57-6.53c6.61-4.74,9.91-11.19,9.91-19.36c0-8.55-4.39-16.17-13.18-22.86c-5.36-4.12-14.25-9.54-26.65-16.27
			c-12.4-6.72-21.4-12.3-26.99-16.74c-11.66-9.17-17.49-20.13-17.49-32.89c0-12.28,4.7-22.39,14.11-30.32
			c8.94-7.54,19.67-11.31,32.19-11.31c14.3,0.86,24.37,3.64,30.2,8.34c5.83,4.7,9.99,9.93,12.48,15.69
			C568.71,1306.59,570.58,1314.48,571.05,1322.64z"/>
		<path class="st1" d="M704.4,1278.56h22.16l0.12,151.49v6.65H704.4v-76.15h-73.47v76.15h-22.39l-0.12-154.99v-3.15h22.51v73.35
			h73.47V1278.56z"/>
		<path class="st1" d="M829,1274.94c21.85,0,40.12,8.24,54.81,24.72c14.07,15.86,21.11,34.87,21.11,57.03
			c0,23.02-7.15,42.53-21.46,58.55c-14.85,16.72-33.63,25.07-56.33,25.07c-23.09,0-41.87-8.2-56.33-24.61
			c-13.84-15.7-20.76-35.26-20.76-58.66c0-25.11,8.55-45.6,25.66-61.46C790.55,1281.82,808.32,1274.94,829,1274.94z M826.78,1283.46
			c-14.15,0-25.5,5.25-34.05,15.75c-10.65,13.06-15.98,32.19-15.98,57.37c0,25.89,5.52,45.76,16.56,59.59
			c8.4,10.57,19.59,15.86,33.59,15.86c18.43,0,32.03-7.85,40.82-23.56c7-12.44,10.5-28.65,10.5-48.63c0-21.22-3.31-38.25-9.91-51.08
			C859.67,1291.89,845.83,1283.46,826.78,1283.46z"/>
		<path class="st1" d="M997.77,1274.94c21.85,0,40.12,8.24,54.81,24.72c14.07,15.86,21.11,34.87,21.11,57.03
			c0,23.02-7.15,42.53-21.46,58.55c-14.85,16.72-33.63,25.07-56.33,25.07c-23.09,0-41.87-8.2-56.33-24.61
			c-13.84-15.7-20.76-35.26-20.76-58.66c0-25.11,8.55-45.6,25.66-61.46C959.32,1281.82,977.09,1274.94,997.77,1274.94z
			 M995.55,1283.46c-14.15,0-25.5,5.25-34.05,15.75c-10.65,13.06-15.98,32.19-15.98,57.37c0,25.89,5.52,45.76,16.56,59.59
			c8.4,10.57,19.59,15.86,33.59,15.86c18.43,0,32.03-7.85,40.82-23.56c7-12.44,10.5-28.65,10.5-48.63c0-21.22-3.31-38.25-9.91-51.08
			C1028.44,1291.89,1014.6,1283.46,995.55,1283.46z"/>
		<path class="st1" d="M1098.12,1278.56h11.78l96.68,118.59v-118.59h10.27v160.7l-4.21,0.01l-104.24-127.32v124.74h-10.27V1278.56z"
			/>
		<path class="st1" d="M1326.63,1369.64v67.05h-22.39v-64.84l-60.99-93.18l26.13-0.11l52.41,80.7l50.63-80.24h12.18L1326.63,1369.64
			z"/>
		<path class="st1" d="M1446.8,1274.94h4.08l72.65,161.75h-29.46l-5.01-13.55c-0.55-1.55-2.87-7.1-6.96-16.64l-9.58-22.76h-61.18
			l-22.82,52.96l-11.81-0.02L1446.8,1274.94z M1469.28,1375.12l-26.78-63.88l-27.55,63.88H1469.28z"/>
	</g>
</g>
</svg>
