<svg width="16" height="19" viewBox="0 0 16 19" fill="none" xmlns="http://www.w3.org/2000/svg">
<path d="M12.7992 17.6841C11.8192 18.6341 10.7492 18.4841 9.71919 18.0341C8.62919 17.5741 7.62919 17.5541 6.47919 18.0341C5.03919 18.6541 4.27919 18.4741 3.41919 17.6841C-1.46081 12.6541 -0.740812 4.99405 4.79919 4.71405C6.14919 4.78405 7.08919 5.45405 7.87919 5.51405C9.05919 5.27405 10.1892 4.58405 11.4492 4.67405C12.9592 4.79405 14.0992 5.39405 14.8492 6.47405C11.7292 8.34405 12.4692 12.4541 15.3292 13.6041C14.7592 15.1041 14.0192 16.5941 12.7892 17.6941L12.7992 17.6841ZM7.77919 4.65405C7.62919 2.42405 9.43919 0.584053 11.5192 0.404053C11.8092 2.98405 9.17919 4.90405 7.77919 4.65405Z" fill="#4F4F4F"/>
</svg>
