<svg width="20" height="20" viewBox="0 0 20 20" fill="none" xmlns="http://www.w3.org/2000/svg">
<path d="M8.35854 7.47504C8.11447 7.23096 7.71874 7.23096 7.47466 7.47504C7.23058 7.71912 7.23058 8.11484 7.47466 8.35892L9.11606 10.0003L7.47468 11.6417C7.2306 11.8858 7.2306 12.2815 7.47468 12.5256C7.71875 12.7697 8.11448 12.7697 8.35856 12.5256L9.99994 10.8842L11.6413 12.5256C11.8854 12.7696 12.2811 12.7696 12.5252 12.5256C12.7693 12.2815 12.7693 11.8858 12.5252 11.6417L10.8838 10.0003L12.5252 8.35894C12.7693 8.11486 12.7693 7.71913 12.5252 7.47506C12.2811 7.23098 11.8854 7.23098 11.6413 7.47506L9.99994 9.11644L8.35854 7.47504Z" fill="#CBCBCB"/>
<path fill-rule="evenodd" clip-rule="evenodd" d="M9.99996 1.04199C5.05241 1.04199 1.04163 5.05277 1.04163 10.0003C1.04163 14.9479 5.05241 18.9587 9.99996 18.9587C14.9475 18.9587 18.9583 14.9479 18.9583 10.0003C18.9583 5.05277 14.9475 1.04199 9.99996 1.04199ZM2.29163 10.0003C2.29163 5.74313 5.74276 2.29199 9.99996 2.29199C14.2572 2.29199 17.7083 5.74313 17.7083 10.0003C17.7083 14.2575 14.2572 17.7087 9.99996 17.7087C5.74276 17.7087 2.29163 14.2575 2.29163 10.0003Z" fill="#CBCBCB"/>
</svg>
