<svg width="14" height="14" viewBox="0 0 14 14" fill="none" xmlns="http://www.w3.org/2000/svg">
<path d="M5.8107 11.8507C6.02282 11.6853 6.21523 11.4929 6.59999 11.1081L11.5306 6.17753C10.8595 5.89823 10.0647 5.43945 9.31302 4.68777C8.56122 3.93597 8.10242 3.14104 7.82313 2.46992L2.89247 7.40058L2.89244 7.40061C2.50769 7.78536 2.3153 7.97775 2.14985 8.18987C1.95468 8.44011 1.78734 8.71086 1.65081 8.99733C1.53507 9.24019 1.44904 9.4983 1.27696 10.0145L0.369551 12.7368C0.284871 12.9908 0.350988 13.2709 0.540339 13.4602C0.72969 13.6496 1.00977 13.7157 1.26381 13.631L3.98604 12.7236C4.50226 12.5515 4.76038 12.4655 5.00324 12.3498C5.28971 12.2132 5.56046 12.0459 5.8107 11.8507Z" fill="#1C274C"/>
<path d="M12.8987 4.80935C13.9225 3.78555 13.9225 2.12564 12.8987 1.10184C11.8749 0.0780337 10.215 0.0780337 9.19121 1.10184L8.59986 1.6932C8.60795 1.71765 8.61635 1.74244 8.62506 1.76755C8.84182 2.39232 9.25079 3.21132 10.0201 3.98066C10.7895 4.75001 11.6085 5.15897 12.2332 5.37573C12.2582 5.3844 12.2829 5.39276 12.3073 5.40083L12.8987 4.80935Z" fill="#1C274C"/>
</svg>
