<svg width="21" height="21" viewBox="0 0 21 21" fill="none" xmlns="http://www.w3.org/2000/svg">
<path d="M18.4206 9.27205H17.7493V9.23747H10.2493V12.5708H14.9589C14.2718 14.5112 12.4256 15.9041 10.2493 15.9041C7.4881 15.9041 5.24935 13.6654 5.24935 10.9041C5.24935 8.14288 7.4881 5.90413 10.2493 5.90413C11.5239 5.90413 12.6835 6.38497 13.5664 7.17038L15.9235 4.8133C14.4352 3.42622 12.4443 2.5708 10.2493 2.5708C5.64727 2.5708 1.91602 6.30205 1.91602 10.9041C1.91602 15.5062 5.64727 19.2375 10.2493 19.2375C14.8514 19.2375 18.5827 15.5062 18.5827 10.9041C18.5827 10.3454 18.5252 9.79997 18.4206 9.27205Z" fill="#FFC107"/>
<path d="M2.87695 7.02538L5.61487 9.0333C6.3557 7.19913 8.14987 5.90413 10.2495 5.90413C11.524 5.90413 12.6836 6.38497 13.5665 7.17038L15.9236 4.8133C14.4353 3.42622 12.4445 2.5708 10.2495 2.5708C7.04862 2.5708 4.27279 4.37788 2.87695 7.02538Z" fill="#FF3D00"/>
<path d="M10.2508 19.2374C12.4033 19.2374 14.3591 18.4137 15.8379 17.0741L13.2587 14.8916C12.3939 15.5493 11.3372 15.905 10.2508 15.9041C8.08328 15.9041 6.24286 14.522 5.54953 12.5933L2.83203 14.687C4.2112 17.3858 7.01203 19.2374 10.2508 19.2374Z" fill="#4CAF50"/>
<path d="M18.4212 9.27189H17.75V9.2373H10.25V12.5706H14.9596C14.6309 13.4941 14.0389 14.3011 13.2567 14.8919L13.2579 14.8911L15.8371 17.0736C15.6546 17.2394 18.5833 15.0706 18.5833 10.904C18.5833 10.3452 18.5258 9.7998 18.4212 9.27189Z" fill="#1976D2"/>
</svg>
