<svg width="21" height="19" viewBox="0 0 21 19" fill="none" xmlns="http://www.w3.org/2000/svg">
<path fill-rule="evenodd" clip-rule="evenodd" d="M19.2675 14.7698C19.236 14.7554 19.2016 14.7486 19.167 14.75H16.643C13.806 14.75 11.306 12.51 11.306 9.5C11.306 6.49 13.806 4.25 16.643 4.25H19.167C19.2016 4.25139 19.236 4.2446 19.2675 4.2302C19.2989 4.21579 19.3265 4.19417 19.3481 4.16708C19.3696 4.14 19.3844 4.10822 19.3914 4.07432C19.3983 4.04042 19.3972 4.00537 19.388 3.972C19.188 3.26 18.869 2.653 18.358 2.141C17.609 1.393 16.66 1.061 15.488 0.903C14.349 0.75 12.893 0.75 11.055 0.75H8.94302C7.10502 0.75 5.65002 0.75 4.51002 0.902C3.33802 1.06 2.38902 1.392 1.64002 2.14C0.892023 2.889 0.560024 3.838 0.402024 5.01C0.249023 6.15 0.249023 7.606 0.249023 9.444V9.556C0.249023 11.394 0.249023 12.849 0.402024 13.989C0.560024 15.161 0.892023 16.11 1.64002 16.859C2.38902 17.607 3.33802 17.939 4.51002 18.097C5.64902 18.25 7.10502 18.25 8.94302 18.25H11.055C12.893 18.25 14.348 18.25 15.488 18.097C16.66 17.939 17.609 17.608 18.358 16.858C18.869 16.348 19.188 15.74 19.388 15.028C19.3972 14.9946 19.3983 14.9596 19.3914 14.9257C19.3844 14.8918 19.3696 14.86 19.3481 14.8329C19.3265 14.8058 19.2989 14.7842 19.2675 14.7698ZM3.46869 4.96967C3.60935 4.82902 3.80011 4.75 3.99902 4.75H7.99902C8.19794 4.75 8.3887 4.82902 8.52935 4.96967C8.67001 5.11032 8.74902 5.30109 8.74902 5.5C8.74902 5.69891 8.67001 5.88968 8.52935 6.03033C8.3887 6.17098 8.19794 6.25 7.99902 6.25H3.99902C3.80011 6.25 3.60935 6.17098 3.46869 6.03033C3.32804 5.88968 3.24902 5.69891 3.24902 5.5C3.24902 5.30109 3.32804 5.11032 3.46869 4.96967ZM19.169 5.75C19.233 5.75 19.294 5.75 19.349 5.754H19.351C19.776 5.77963 20.1773 5.9589 20.4799 6.25842C20.7826 6.55793 20.966 6.95726 20.996 7.382C21 7.442 21 7.507 21 7.567V11.433C21 11.493 21 11.558 20.996 11.618C20.966 12.0427 20.7826 12.4421 20.4799 12.7416C20.1773 13.0411 19.776 13.2204 19.351 13.246C19.294 13.25 19.233 13.25 19.169 13.25H16.644C14.577 13.25 12.807 11.622 12.807 9.5C12.807 7.378 14.576 5.75 16.644 5.75H19.169H19.169ZM17.386 9.5C17.386 10.052 16.955 10.5 16.423 10.5C15.89 10.5 15.459 10.052 15.459 9.5C15.459 8.948 15.89 8.5 16.423 8.5C16.955 8.5 17.386 8.948 17.386 9.5Z" fill="#B2B2B2"/>
</svg>
